<svg width="29" height="20" viewBox="0 0 29 20" fill="none" xmlns="http://www.w3.org/2000/svg">
<g clip-path="url(#clip0_23_570)">
<path d="M28.4864 10.0055C28.2184 9.11763 28.0846 8.67345 27.8903 8.20124C27.5162 7.28791 27.0399 6.54531 26.3265 5.6252C24.6567 3.47514 23.8222 2.39808 22.4603 1.54011C19.5054 -0.323388 16.3956 0.00632904 16.0409 0.0491539C14.9796 0.176612 12.6451 0.641244 10.6443 2.56667C9.51091 3.65887 8.79871 5.22486 8.46532 6.02429C8.0967 12.3962 14.3635 14.9488 15.839 16.016C16.3131 16.2412 17.4035 16.72 18.2885 17.1758C20.3323 18.228 21.749 18.4458 22.4799 18.5732C24.0726 18.8518 26.5499 18.2227 27.7256 16.9081C28.8521 15.6484 29.1802 13.9488 28.9115 12.4341C28.8299 11.9684 28.8288 11.1401 28.4855 10.0026L28.4864 10.0055Z" fill="#577138"/>
<path d="M27.5852 9.32159C27.1584 8.18577 26.6581 7.4321 26.0642 6.5382C25.3371 5.44351 24.6874 4.69718 24.1656 4.10283C23.0527 2.83549 22.4958 2.20181 21.7397 1.7417C20.4344 0.947237 19.1727 0.803734 18.4555 0.729045C16.7629 0.554017 15.4692 0.912096 14.8402 1.09198C14.1931 1.27797 12.911 1.6591 11.5716 2.70769C10.3587 3.65775 9.61245 5.08825 9.20645 5.85842C8.83375 6.55266 11.1266 12.1248 16.4235 15.4182C16.6945 15.558 17.449 15.9016 17.9151 16.1368C18.0549 16.2074 18.1953 16.2768 18.3364 16.3449C18.5468 16.441 18.743 16.533 18.9277 16.6211C19.5226 16.889 19.891 17.0253 20.3786 17.2798C22.0676 18.1607 23.8509 17.9095 24.1154 17.8685C24.466 17.8147 26.9038 17.4385 27.9129 15.5035C28.4453 14.4829 28.3527 13.4668 28.2261 12.0751C28.1902 11.6806 28.0695 10.613 27.5832 9.31921" fill="#A3B34F"/>
<path d="M19.4067 16.1429C21.182 16.8206 21.766 17.1748 22.5262 17.2673C22.7761 17.2971 25.1599 17.4466 26.557 16.1299C27.5974 15.1502 27.6473 14.1597 27.7072 13.6926C27.9145 12.0843 27.456 10.0218 26.9205 9.00941C26.2174 7.67936 26.0358 7.39981 24.1496 4.90681C22.7529 3.06275 22.053 2.7215 21.3241 2.24263C20.0712 1.42546 18.6219 1.40693 17.6382 1.36647C16.9145 1.3371 15.5591 1.6015 14.26 2.05574C12.23 2.76783 11.0444 3.96094 10.2115 5.65032C9.28714 7.59834 13.9621 13.9475 17.213 15.2452" fill="#DDE072"/>
<path d="M20.0138 12.3316C21.1458 12.1341 21.8995 10.9754 22.1301 10.0369C22.4539 8.70932 21.7843 7.60141 21.3381 6.86265C20.917 6.1674 20.1765 5.19463 18.8357 4.65203C17.6015 4.15169 16.643 4.75858 16.1962 5.00683C14.227 7.91124 15.7524 10.8588 18.6497 12.3306C19.0152 12.3666 19.7262 12.3816 20.0132 12.3317" fill="#A3B34F"/>
<path d="M16.7358 15.0677C17.2328 14.4759 18.1881 13.2488 18.5744 12.4858C18.5996 12.4361 18.6248 12.3834 18.65 12.3287C19.0668 11.4253 19.4803 9.86205 19.5197 8.63063C19.5549 7.52781 19.1769 6.78261 19.1769 6.78261C18.7913 5.77967 17.6822 5.43628 17.1959 5.25063C16.7965 5.10634 16.4387 5.03267 16.0755 4.9912C15.3606 4.92724 14.3688 5.00363 12.6542 5.25447C10.9558 5.49176 9.26027 5.81527 7.69858 6.19041C5.80508 6.65063 4.76119 6.90419 3.55815 7.48487C2.16841 8.15527 0.855823 8.7886 0.287604 10.1802C-0.0601696 11.0327 -0.0299236 11.891 0.0567366 12.4613C0.0567366 12.4613 0.431697 16.1924 3.0059 18.0942C5.16142 19.6888 8.33975 20.2775 10.7088 19.6318C12.5773 19.2774 14.3594 17.5306 15.8408 16.0022C16.1434 15.6964 16.508 15.3375 16.7364 15.0666L16.7358 15.0677Z" fill="#577138"/>
<path d="M14.3903 14.4424C12.6485 15.4625 10.0931 16.8466 6.89518 16.8113C6.79142 16.8102 6.68768 16.8075 6.58399 16.8034C5.51145 16.7602 2.66288 16.6459 1.19724 14.7453C0.792944 14.2202 0.554034 13.64 0.424553 13.2455L0.421155 13.237C0.342877 12.9965 0.313991 12.8551 0.313084 12.8501C0.291074 12.7485 0.272335 12.6463 0.256897 12.5435L0.254971 12.5365L0.254405 12.5332L0.253952 12.5315C0.171709 11.9864 0.143389 11.169 0.472811 10.362C1.01203 9.04249 2.23207 8.45379 3.64537 7.77221C4.82938 7.20091 5.86545 6.94916 7.74467 6.49209C7.98551 6.43401 8.21706 6.37876 8.44045 6.32769C8.69307 6.27051 8.93571 6.2165 9.16851 6.16723C9.61155 6.07337 10.056 5.98647 10.5018 5.90656L10.5041 5.9052C11.3138 5.76147 12.0241 5.65582 12.6832 5.55989C14.3815 5.31142 15.3599 5.23526 16.0575 5.29797C16.4401 5.33153 16.7589 5.40554 17.1237 5.54486C17.6218 5.73503 18.5488 6.08916 18.9968 6.97944C19.1316 7.2478 19.2113 7.54509 19.2342 7.86452C19.2369 7.89548 19.2388 7.92735 19.2397 7.95921C19.2671 8.76147 18.9355 9.55017 18.7574 9.97435C17.7567 12.3511 15.8965 13.5591 14.3896 14.4425" fill="#A3B34F"/>
<path d="M13.2927 14.5596C14.9511 13.7082 16.2967 12.7309 16.9904 11.9698C18.1425 10.7051 18.6122 9.41918 18.714 8.37342C18.8279 7.20166 18.0892 6.7637 17.8386 6.55059C16.9059 5.75647 15.638 5.76912 14.4859 5.76494C13.9623 5.76325 13.211 5.80325 10.9078 6.3037C9.076 6.72031 8.70137 6.8107 6.48707 7.41443C5.01101 7.82415 4.17873 8.1002 3.49871 8.52607C2.54828 9.12155 1.36483 9.86257 1.06497 11.2918C0.692503 13.0649 2.00736 14.5422 2.27459 14.8218C3.56146 16.1608 5.33545 16.3216 6.55821 16.3257C7.03852 16.3273 7.49323 16.302 7.89425 16.2799C10.3788 16.1429 12.0895 15.1764 13.2927 14.5606" fill="#DDE072"/>
<path d="M6.85395 7.42549C6.66375 7.56899 6.3537 7.87294 6.19466 8.03566L5.75218 8.52922C4.96759 9.51182 4.40798 11.4063 4.83279 11.9163C5.05074 12.1785 5.16516 12.207 5.24309 12.2592C6.33229 12.7846 7.32611 13.5058 8.95056 13.6006L10.3017 13.599C10.4111 13.5945 10.5717 13.588 10.6872 13.5794C10.9883 13.5524 10.8569 13.5499 11.0647 13.5277C12.9338 13.2216 15.4227 11.9028 15.3267 10.0564C15.29 9.3665 14.5 8.23633 13.9636 7.7265C13.3935 7.18402 12.3276 6.65701 12.0484 6.55758C11.9177 6.51735 11.7615 6.46413 11.5009 6.4186C11.3657 6.3939 11.2299 6.37336 11.0935 6.35701C11.0294 6.34916 10.9652 6.34231 10.9009 6.33645C10.836 6.33035 10.772 6.32696 10.7079 6.32289C9.3509 6.23871 8.13301 6.59148 7.19448 7.18797C7.11654 7.23758 7.03985 7.2882 6.96599 7.34108C6.9277 7.36899 6.89043 7.39588 6.85327 7.4247" fill="#5E3108"/>
</g>
<defs>
<clipPath id="clip0_23_570">
<rect width="29" height="20" fill="white"/>
</clipPath>
</defs>
</svg>
