<svg width="20" height="20" viewBox="0 0 20 20" fill="none" xmlns="http://www.w3.org/2000/svg">
<g clip-path="url(#clip0_26_733)">
<path d="M10.0002 4.99992C8.67408 4.99992 7.40231 5.5267 6.46463 6.46439C5.52695 7.40207 5.00016 8.67384 5.00016 9.99992H0.833496C0.833496 4.93742 4.93766 0.833252 10.0002 0.833252C15.0627 0.833252 19.1668 4.93742 19.1668 9.99992C19.1668 15.0624 15.0627 19.1666 10.0002 19.1666V14.9999C11.3262 14.9999 12.598 14.4731 13.5357 13.5355C14.4734 12.5978 15.0002 11.326 15.0002 9.99992C15.0002 8.67384 14.4734 7.40207 13.5357 6.46439C12.598 5.5267 11.3262 4.99992 10.0002 4.99992Z" fill="#DEDEDE"/>
<path d="M5.8335 14.9999V10.8333H10.0002V14.9999H5.8335ZM2.50016 14.9999V18.3333H5.8335V14.9999H2.50016ZM2.50016 14.9999H0.833496V13.3333H2.50016V14.9999Z" fill="#DEDEDE"/>
</g>
<defs>
<clipPath id="clip0_26_733">
<rect width="20" height="20" fill="white"/>
</clipPath>
</defs>
</svg>
