<svg width="20" height="20" viewBox="0 0 20 20" fill="none" xmlns="http://www.w3.org/2000/svg">
<g clip-path="url(#clip0_23_579)">
<path d="M15.3125 0H4.6875C2.09867 0 0 2.09867 0 4.6875V15.3125C0 17.9013 2.09867 20 4.6875 20H15.3125C17.9013 20 20 17.9013 20 15.3125V4.6875C20 2.09867 17.9013 0 15.3125 0Z" fill="#2396ED"/>
<path d="M11.0302 9.54086H12.6487V8.07648H11.0302V9.54086ZM9.10352 9.54086H10.722V8.07648H9.10352V9.54086ZM7.21523 9.54086H8.83375V8.07648H7.21523V9.54086ZM5.32695 9.54086H6.90703V8.07648H5.32703L5.32695 9.54086ZM3.40023 9.54086H5.01875V8.07648H3.40023V9.54086ZM5.32703 7.7682H6.90695V6.30391H5.32703V7.7682ZM7.21531 7.7682H8.83375V6.30391H7.21523L7.21531 7.7682ZM9.10352 7.7682H10.722V6.30391H9.10352V7.7682ZM9.10352 5.99555H10.722V4.53125H9.10352V5.99555ZM17.8125 8.88586C17.8125 8.88586 17.1188 8.2307 15.693 8.46195C15.5389 7.34438 14.3443 6.6893 14.3443 6.6893C14.3443 6.6893 13.2268 8.03805 14.036 9.54094C13.8048 9.65656 13.4195 9.8107 12.8414 9.8107H2.24422C2.05148 10.5429 2.05148 15.3983 7.36937 15.3983C11.1844 15.3983 14.036 13.6257 15.3848 10.3887C17.3886 10.5428 17.8125 8.88586 17.8125 8.88586Z" fill="white"/>
</g>
<defs>
<clipPath id="clip0_23_579">
<rect width="20" height="20" fill="white"/>
</clipPath>
</defs>
</svg>
