<svg width="87" height="87" viewBox="0 0 87 87" fill="none" xmlns="http://www.w3.org/2000/svg">
<circle cx="43.5" cy="43.5" r="43.5" fill="#DEDEDE"/>
<mask id="mask0_48_47" style="mask-type:luminance" maskUnits="userSpaceOnUse" x="7" y="37" width="74" height="11">
<path d="M81 37H7V47.6515H81V37Z" fill="white"/>
</mask>
<g mask="url(#mask0_48_47)">
<path d="M12.8104 41.7955H18.0982C18.0982 45.5049 15.5016 47.6515 12.5624 47.6515C8.99911 47.6515 6.99756 44.8814 6.99756 42.3263C6.99756 39.7713 8.99911 37 12.5641 37C13.7919 37 15.0203 37.3496 16.263 38.3984L15.4188 39.3774C14.5769 38.603 13.4865 38.2196 12.5641 38.2196C12.0167 38.2192 11.4747 38.3252 10.9691 38.5317C10.4635 38.7381 10.0043 39.0408 9.61793 39.4224C9.23154 39.804 8.92556 40.257 8.71756 40.7553C8.50957 41.2537 8.40367 41.7876 8.40593 42.3263C8.40593 44.7317 10.4223 46.4296 12.5624 46.4296C14.4526 46.4296 16.2067 45.1809 16.6472 43.0186H12.8104V41.7955Z" fill="#1389CA"/>
<path d="M19.7832 37.1614H25.2089V38.385H21.1075V41.6615H25.2089V42.8851H21.1075V46.2647H25.2089V47.4883H19.7832V37.1614Z" fill="#1389CA"/>
<path d="M27.9974 42.3263C27.9974 39.879 30.0144 38.2196 32.1533 38.2196C34.2922 38.2196 36.3074 39.8797 36.3074 42.3263C36.3074 44.773 34.2946 46.4296 32.1533 46.4296C30.012 46.4296 27.9974 44.7696 27.9974 42.3263ZM26.5879 42.3263C26.5879 44.8814 28.5912 47.6515 32.1527 47.6515C35.7142 47.6515 37.7175 44.8814 37.7175 42.3263C37.7175 39.7713 35.7147 37 32.1533 37C28.5918 37 26.5879 39.7707 26.5879 42.3263Z" fill="#1389CA"/>
<path d="M49.3129 37.1614H50.6379V47.4883H49.3129V39.8382H49.2864L45.0477 47.5967L40.8093 39.8382H40.7805V47.4883H39.4561V37.1614H40.7805L45.0477 44.963L49.3129 37.1614Z" fill="#3E3E3E"/>
<path d="M58.7835 43.9433H54.8071L56.7943 38.8739L58.7835 43.9433ZM60.1907 47.4883H61.641L57.3749 37.1614H56.2148L51.9487 47.4883H53.3987L54.3529 45.083H59.2386L60.1907 47.4883Z" fill="#3E3E3E"/>
<path d="M63.5492 38.3856H60.9263V37.162H67.4974V38.3856H64.8742V47.4884H63.5492V38.3856Z" fill="#3E3E3E"/>
<path d="M68.7817 37.1614H70.1067V47.4883H68.7817V37.1614Z" fill="#3E3E3E"/>
<path d="M80.0613 39.2824C79.3141 38.6158 78.3634 38.2196 77.3551 38.2196C76.808 38.2195 76.2664 38.3258 75.7609 38.5323C75.2557 38.7389 74.7969 39.0417 74.4108 39.4233C74.0248 39.8048 73.7189 40.2577 73.5112 40.7559C73.3035 41.2541 73.1977 41.7878 73.2 42.3263C73.2 44.7317 75.2129 46.4296 77.3551 46.4296C78.5132 46.4296 79.4236 46.0089 80.1572 45.3289L80.9994 46.2647C80.0613 47.1073 78.6801 47.6498 77.3551 47.6498C73.7932 47.6498 71.7905 44.8797 71.7905 42.3246C71.7905 39.7695 73.7932 37 77.3551 37C78.75 37 80.1158 37.5553 80.9575 38.3157L80.0613 39.2824Z" fill="#3E3E3E"/>
</g>
<path d="M39.3894 53.1592C39.5519 53.1592 39.6979 53.1368 39.8272 53.0919C39.9566 53.047 40.0658 52.9848 40.155 52.9053C40.2459 52.8259 40.3149 52.7326 40.3621 52.6255C40.4111 52.5167 40.4356 52.3984 40.4356 52.2706C40.4356 51.989 40.3482 51.7722 40.1733 51.6202C39.9985 51.4682 39.7372 51.3922 39.3894 51.3922H38.6998V53.1592H39.3894ZM39.3894 51.1824C39.8246 51.1824 40.1524 51.2765 40.3726 51.4648C40.5946 51.6531 40.7056 51.9216 40.7056 52.2706C40.7056 52.4312 40.675 52.5789 40.6139 52.7136C40.5527 52.8483 40.4653 52.9649 40.3516 53.0634C40.238 53.1601 40.0999 53.2361 39.9374 53.2914C39.7748 53.3449 39.5921 53.3717 39.3894 53.3717H38.6998V54.8485H38.4297V51.1824H39.3894ZM42.2177 52.2291C42.4047 52.2291 42.5716 52.2611 42.7185 52.325C42.8671 52.3871 42.9921 52.4761 43.0934 52.5918C43.1948 52.7076 43.2717 52.8475 43.3242 53.0116C43.3784 53.1739 43.4055 53.3561 43.4055 53.5582C43.4055 53.7603 43.3784 53.9426 43.3242 54.1049C43.2717 54.2673 43.1948 54.4063 43.0934 54.5221C42.9921 54.6378 42.8671 54.7267 42.7185 54.7889C42.5716 54.8511 42.4047 54.8822 42.2177 54.8822C42.0306 54.8822 41.8628 54.8511 41.7142 54.7889C41.5674 54.7267 41.4424 54.6378 41.3393 54.5221C41.2379 54.4063 41.1601 54.2673 41.1059 54.1049C41.0535 53.9426 41.0273 53.7603 41.0273 53.5582C41.0273 53.3561 41.0535 53.1739 41.1059 53.0116C41.1601 52.8475 41.2379 52.7076 41.3393 52.5918C41.4424 52.4761 41.5674 52.3871 41.7142 52.325C41.8628 52.2611 42.0306 52.2291 42.2177 52.2291ZM42.2177 54.6879C42.3732 54.6879 42.5087 54.662 42.6241 54.6101C42.7412 54.5566 42.8382 54.4806 42.9151 54.3821C42.9938 54.2837 43.0524 54.1654 43.0908 54.0272C43.1293 53.8873 43.1485 53.731 43.1485 53.5582C43.1485 53.3872 43.1293 53.2318 43.0908 53.0919C43.0524 52.952 42.9938 52.8328 42.9151 52.7343C42.8382 52.6341 42.7412 52.5573 42.6241 52.5037C42.5087 52.4502 42.3732 52.4234 42.2177 52.4234C42.0621 52.4234 41.9258 52.4502 41.8086 52.5037C41.6933 52.5573 41.5962 52.6341 41.5176 52.7343C41.4407 52.8328 41.3821 52.952 41.3419 53.0919C41.3035 53.2318 41.2842 53.3872 41.2842 53.5582C41.2842 53.731 41.3035 53.8873 41.3419 54.0272C41.3821 54.1654 41.4407 54.2837 41.5176 54.3821C41.5962 54.4806 41.6933 54.5566 41.8086 54.6101C41.9258 54.662 42.0621 54.6879 42.2177 54.6879ZM47.5262 52.2706L46.6556 54.8485H46.4695C46.4398 54.8485 46.4197 54.8304 46.4092 54.7941L45.696 52.7006C45.6872 52.6747 45.6794 52.6488 45.6724 52.6229C45.6654 52.597 45.6593 52.5711 45.654 52.5452C45.6453 52.597 45.6322 52.6488 45.6147 52.7006L44.891 54.7941C44.8805 54.8304 44.8595 54.8485 44.8281 54.8485H44.6498L43.7792 52.2706H43.968C43.9925 52.2706 44.0126 52.2775 44.0283 52.2913C44.0441 52.3034 44.0546 52.3172 44.0598 52.3327L44.7179 54.3666C44.7284 54.4063 44.738 54.4452 44.7468 54.4832C44.7555 54.5195 44.7625 54.5557 44.7678 54.592C44.7782 54.5557 44.7887 54.5195 44.7992 54.4832C44.8097 54.4452 44.8219 54.4063 44.8359 54.3666L45.5334 52.3146C45.5456 52.2766 45.5701 52.2576 45.6068 52.2576H45.7091C45.7475 52.2576 45.7729 52.2766 45.7851 52.3146L46.4773 54.3666C46.4896 54.4063 46.5009 54.4443 46.5114 54.4806C46.5219 54.5169 46.5315 54.5531 46.5403 54.5894C46.5473 54.5531 46.5542 54.5169 46.5612 54.4806C46.57 54.4443 46.5805 54.4063 46.5927 54.3666L47.2561 52.3327C47.2631 52.3137 47.2744 52.2991 47.2902 52.2887C47.3059 52.2766 47.3243 52.2706 47.3452 52.2706H47.5262ZM49.8875 53.2991C49.8875 53.161 49.8673 53.0375 49.8271 52.9286C49.7887 52.8181 49.7336 52.7248 49.662 52.6488C49.5903 52.5728 49.5046 52.515 49.405 52.4752C49.3071 52.4338 49.1987 52.4131 49.0799 52.4131C48.9453 52.4131 48.8247 52.4338 48.718 52.4752C48.6114 52.5167 48.5187 52.5763 48.4401 52.654C48.3632 52.7317 48.3011 52.825 48.2539 52.9338C48.2067 53.0426 48.1753 53.1644 48.1595 53.2991H49.8875ZM48.1464 53.4572V53.5064C48.1464 53.6999 48.1691 53.87 48.2146 54.0168C48.26 54.1636 48.3247 54.2871 48.4086 54.3873C48.4925 54.4858 48.5939 54.5601 48.7128 54.6101C48.8316 54.6602 48.9645 54.6853 49.1113 54.6853C49.2424 54.6853 49.356 54.6715 49.4522 54.6438C49.5483 54.6145 49.6287 54.5825 49.6934 54.548C49.7598 54.5117 49.8123 54.4797 49.8507 54.4521C49.8892 54.4227 49.9172 54.4081 49.9347 54.4081C49.9574 54.4081 49.9749 54.4167 49.9871 54.434L50.0553 54.5169C50.0133 54.5687 49.9574 54.6171 49.8875 54.662C49.8193 54.7069 49.7424 54.7457 49.6567 54.7786C49.5728 54.8096 49.4819 54.8347 49.384 54.8537C49.2879 54.8727 49.1909 54.8822 49.093 54.8822C48.9147 54.8822 48.7521 54.852 48.6053 54.7915C48.4584 54.7293 48.3326 54.6395 48.2277 54.5221C48.1228 54.4046 48.0415 54.2612 47.9838 54.092C47.9279 53.921 47.8999 53.7258 47.8999 53.5064C47.8999 53.3216 47.9262 53.1515 47.9786 52.996C48.0328 52.8388 48.1097 52.7041 48.2093 52.5918C48.3107 52.4778 48.434 52.3889 48.5791 52.325C48.7259 52.2611 48.8919 52.2291 49.0772 52.2291C49.2241 52.2291 49.3604 52.2541 49.4863 52.3042C49.6121 52.3543 49.7214 52.4277 49.814 52.5245C49.9067 52.6195 49.9792 52.7369 50.0317 52.8768C50.0859 53.0167 50.1129 53.1774 50.1129 53.3587C50.1129 53.3967 50.1077 53.4226 50.0972 53.4365C50.0867 53.4503 50.0692 53.4572 50.0448 53.4572H48.1464ZM51.0307 52.8924C51.0709 52.787 51.1163 52.6937 51.167 52.6126C51.2195 52.5296 51.2789 52.4597 51.3453 52.4027C51.4135 52.3457 51.4886 52.3025 51.5708 52.2731C51.6547 52.2421 51.7474 52.2265 51.8487 52.2265C51.9029 52.2265 51.9562 52.2317 52.0087 52.2421C52.0611 52.2507 52.1075 52.2671 52.1477 52.2913L52.1267 52.4623C52.1179 52.4899 52.1013 52.5037 52.0769 52.5037C52.0559 52.5037 52.0235 52.4977 51.9798 52.4856C51.9379 52.4735 51.882 52.4675 51.812 52.4675C51.7107 52.4675 51.6206 52.483 51.542 52.5141C51.4651 52.5435 51.3951 52.5884 51.3322 52.6488C51.271 52.7093 51.2168 52.7844 51.1696 52.8742C51.1242 52.9623 51.0822 53.0642 51.0438 53.18V54.8485H50.7921V52.2706H50.9258C50.9555 52.2706 50.9765 52.2766 50.9887 52.2887C51.0009 52.3008 51.0088 52.3215 51.0123 52.3509L51.0307 52.8924ZM54.3275 53.2991C54.3275 53.161 54.3074 53.0375 54.2671 52.9286C54.2287 52.8181 54.1736 52.7248 54.102 52.6488C54.0303 52.5728 53.9446 52.515 53.845 52.4752C53.7471 52.4338 53.6387 52.4131 53.5199 52.4131C53.3853 52.4131 53.2646 52.4338 53.158 52.4752C53.0514 52.5167 52.9587 52.5763 52.8801 52.654C52.8032 52.7317 52.7411 52.825 52.6939 52.9338C52.6467 53.0426 52.6153 53.1644 52.5995 53.2991H54.3275ZM52.5864 53.4572V53.5064C52.5864 53.6999 52.6091 53.87 52.6546 54.0168C52.7 54.1636 52.7647 54.2871 52.8486 54.3873C52.9325 54.4858 53.0339 54.5601 53.1528 54.6101C53.2716 54.6602 53.4045 54.6853 53.5513 54.6853C53.6824 54.6853 53.7961 54.6715 53.8922 54.6438C53.9883 54.6145 54.0687 54.5825 54.1334 54.548C54.1998 54.5117 54.2523 54.4797 54.2907 54.4521C54.3292 54.4227 54.3572 54.4081 54.3746 54.4081C54.3974 54.4081 54.4149 54.4167 54.4271 54.434L54.4953 54.5169C54.4533 54.5687 54.3974 54.6171 54.3275 54.662C54.2593 54.7069 54.1824 54.7457 54.0967 54.7786C54.0128 54.8096 53.9219 54.8347 53.824 54.8537C53.7279 54.8727 53.6309 54.8822 53.533 54.8822C53.3547 54.8822 53.1921 54.852 53.0453 54.7915C52.8984 54.7293 52.7726 54.6395 52.6677 54.5221C52.5628 54.4046 52.4815 54.2612 52.4238 54.092C52.3679 53.921 52.3399 53.7258 52.3399 53.5064C52.3399 53.3216 52.3662 53.1515 52.4186 52.996C52.4728 52.8388 52.5497 52.7041 52.6493 52.5918C52.7507 52.4778 52.874 52.3889 53.019 52.325C53.1659 52.2611 53.3319 52.2291 53.5172 52.2291C53.6641 52.2291 53.8004 52.2541 53.9263 52.3042C54.0521 52.3543 54.1614 52.4277 54.254 52.5245C54.3467 52.6195 54.4192 52.7369 54.4717 52.8768C54.5259 53.0167 54.553 53.1774 54.553 53.3587C54.553 53.3967 54.5477 53.4226 54.5372 53.4365C54.5267 53.4503 54.5092 53.4572 54.4848 53.4572H52.5864ZM57.0124 52.825C56.9128 52.6765 56.8018 52.572 56.6794 52.5115C56.5588 52.4511 56.4207 52.4208 56.2651 52.4208C56.1113 52.4208 55.9767 52.4485 55.8614 52.5037C55.746 52.559 55.649 52.6376 55.5703 52.7395C55.4934 52.8397 55.4348 52.9606 55.3946 53.1022C55.3562 53.2421 55.3369 53.3967 55.3369 53.566C55.3369 53.9495 55.4077 54.2319 55.5493 54.4132C55.6927 54.5929 55.8989 54.6827 56.1681 54.6827C56.3394 54.6827 56.4959 54.6386 56.6375 54.5506C56.7791 54.4625 56.904 54.339 57.0124 54.1801V52.825ZM57.2615 51.0787V54.8485H57.1252C57.0797 54.8485 57.0535 54.8261 57.0465 54.7811L57.0203 54.3744C56.9049 54.5298 56.7703 54.6533 56.6165 54.7449C56.4627 54.8364 56.2896 54.8822 56.0973 54.8822C55.7757 54.8822 55.5257 54.7725 55.3474 54.5531C55.1691 54.3338 55.08 54.0047 55.08 53.566C55.08 53.3777 55.1045 53.2024 55.1534 53.0401C55.2041 52.876 55.2775 52.7343 55.3736 52.6151C55.4698 52.4942 55.5878 52.3992 55.7276 52.3301C55.8692 52.2611 56.0318 52.2265 56.2153 52.2265C56.3919 52.2265 56.5448 52.2585 56.6742 52.3224C56.8035 52.3863 56.9163 52.4813 57.0124 52.6074V51.0787H57.2615ZM59.7959 54.2863C59.8973 54.4348 60.0083 54.5393 60.1289 54.5998C60.2512 54.6585 60.3885 54.6879 60.5405 54.6879C60.6961 54.6879 60.8316 54.6602 60.947 54.605C61.0641 54.5497 61.1611 54.4711 61.238 54.3692C61.3167 54.2656 61.3752 54.1403 61.4137 53.9935C61.4521 53.8467 61.4714 53.6817 61.4714 53.4986C61.4714 53.1428 61.3997 52.8751 61.2564 52.6955C61.113 52.5158 60.912 52.426 60.6533 52.426C60.468 52.426 60.3063 52.4701 60.1682 52.5581C60.0301 52.6462 59.906 52.7689 59.7959 52.9261V54.2863ZM59.7959 52.7188C59.9095 52.5668 60.0424 52.4476 60.1944 52.3612C60.3465 52.2731 60.5231 52.2291 60.7241 52.2291C60.8814 52.2291 61.0221 52.2576 61.1462 52.3146C61.2703 52.3716 61.3752 52.4536 61.4609 52.5607C61.5483 52.6678 61.6147 52.8 61.6602 52.9571C61.7056 53.1126 61.7283 53.2896 61.7283 53.4883C61.7283 53.6973 61.703 53.8881 61.6523 54.0609C61.6016 54.2319 61.5273 54.3787 61.4294 54.5013C61.3333 54.6222 61.2153 54.7164 61.0754 54.7837C60.9356 54.8494 60.7757 54.8822 60.5956 54.8822C60.4103 54.8822 60.2521 54.8476 60.121 54.7786C59.9917 54.7077 59.8798 54.6032 59.7854 54.4651L59.767 54.7837C59.7618 54.8269 59.7382 54.8485 59.6962 54.8485H59.5442V51.0787H59.7959V52.7188ZM64.4791 52.2706L62.9793 55.6776C62.9688 55.7018 62.9549 55.7216 62.9374 55.7372C62.9216 55.7527 62.8981 55.7605 62.8666 55.7605H62.6883L63.1471 54.7526L62.0433 52.2706H62.2504C62.2766 52.2706 62.2976 52.2775 62.3133 52.2913C62.3291 52.3034 62.3396 52.3172 62.3448 52.3327L63.2232 54.3381C63.2337 54.364 63.2424 54.3908 63.2494 54.4184C63.2581 54.4443 63.266 54.4711 63.273 54.4987C63.2817 54.4711 63.2905 54.4443 63.2992 54.4184C63.3097 54.3908 63.3202 54.364 63.3307 54.3381L64.1986 52.3327C64.2073 52.3137 64.2196 52.2991 64.2353 52.2887C64.251 52.2766 64.2685 52.2706 64.2877 52.2706H64.4791Z" fill="#3E3E3E"/>
<path d="M69.3666 51.1824L67.8353 54.8485H67.5967L66.0654 51.1824H66.2778C66.3023 51.1824 66.3224 51.1893 66.3381 51.2031C66.3539 51.2152 66.3661 51.2316 66.3748 51.2523L67.6387 54.2941C67.6526 54.3321 67.6666 54.3726 67.6806 54.4158C67.6946 54.459 67.7077 54.5031 67.7199 54.548C67.7304 54.5031 67.7418 54.459 67.754 54.4158C67.7663 54.3726 67.7802 54.3321 67.796 54.2941L69.0572 51.2523C69.0642 51.2333 69.0764 51.2169 69.0939 51.2031C69.1114 51.1893 69.1323 51.1824 69.1568 51.1824H69.3666ZM70.5331 52.2291C70.7201 52.2291 70.8871 52.2611 71.0339 52.325C71.1825 52.3871 71.3075 52.4761 71.4089 52.5918C71.5103 52.7076 71.5872 52.8475 71.6396 53.0116C71.6938 53.1739 71.7209 53.3561 71.7209 53.5582C71.7209 53.7603 71.6938 53.9426 71.6396 54.1049C71.5872 54.2673 71.5103 54.4063 71.4089 54.5221C71.3075 54.6378 71.1825 54.7267 71.0339 54.7889C70.8871 54.8511 70.7201 54.8822 70.5331 54.8822C70.3461 54.8822 70.1783 54.8511 70.0297 54.7889C69.8828 54.7267 69.7579 54.6378 69.6547 54.5221C69.5533 54.4063 69.4755 54.2673 69.4214 54.1049C69.3689 53.9426 69.3427 53.7603 69.3427 53.5582C69.3427 53.3561 69.3689 53.1739 69.4214 53.0116C69.4755 52.8475 69.5533 52.7076 69.6547 52.5918C69.7579 52.4761 69.8828 52.3871 70.0297 52.325C70.1783 52.2611 70.3461 52.2291 70.5331 52.2291ZM70.5331 54.6879C70.6887 54.6879 70.8242 54.662 70.9395 54.6101C71.0566 54.5566 71.1537 54.4806 71.2306 54.3821C71.3092 54.2837 71.3678 54.1654 71.4062 54.0272C71.4447 53.8873 71.4639 53.731 71.4639 53.5582C71.4639 53.3872 71.4447 53.2318 71.4062 53.0919C71.3678 52.952 71.3092 52.8328 71.2306 52.7343C71.1537 52.6341 71.0566 52.5573 70.9395 52.5037C70.8242 52.4502 70.6887 52.4234 70.5331 52.4234C70.3775 52.4234 70.2412 52.4502 70.1241 52.5037C70.0087 52.5573 69.9117 52.6341 69.833 52.7343C69.7561 52.8328 69.6975 52.952 69.6573 53.0919C69.6189 53.2318 69.5997 53.3872 69.5997 53.5582C69.5997 53.731 69.6189 53.8873 69.6573 54.0272C69.6975 54.1654 69.7561 54.2837 69.833 54.3821C69.9117 54.4806 70.0087 54.5566 70.1241 54.6101C70.2412 54.662 70.3775 54.6879 70.5331 54.6879ZM72.6995 51.0787V54.8485H72.4478V51.0787H72.6995ZM75.0422 53.6023C74.7939 53.6109 74.5798 53.6308 74.3998 53.6619C74.2215 53.6912 74.0737 53.7318 73.9566 53.7836C73.8413 53.8355 73.7556 53.8976 73.6997 53.9702C73.6437 54.041 73.6158 54.1222 73.6158 54.2137C73.6158 54.3001 73.6297 54.3752 73.6577 54.4391C73.6874 54.5013 73.7259 54.5531 73.7731 54.5946C73.822 54.6343 73.878 54.6637 73.9409 54.6827C74.0038 54.7017 74.0694 54.7112 74.1375 54.7112C74.2389 54.7112 74.3316 54.7008 74.4155 54.6801C74.5011 54.6576 74.5798 54.6274 74.6515 54.5894C74.7249 54.5497 74.7931 54.5031 74.856 54.4495C74.9189 54.396 74.981 54.3381 75.0422 54.2759V53.6023ZM73.5083 52.6359C73.6446 52.5011 73.7879 52.3992 73.9383 52.3301C74.0886 52.2611 74.259 52.2265 74.4496 52.2265C74.5894 52.2265 74.7118 52.249 74.8167 52.2939C74.9215 52.3371 75.0081 52.4001 75.0762 52.483C75.1462 52.5642 75.1986 52.6635 75.2336 52.781C75.2685 52.8967 75.286 53.0262 75.286 53.1696V54.8485H75.1864C75.1339 54.8485 75.1016 54.8243 75.0894 54.776L75.0526 54.4443C74.981 54.5134 74.9093 54.5756 74.8376 54.6309C74.7677 54.6861 74.6943 54.7328 74.6174 54.7708C74.5405 54.8088 74.4574 54.8381 74.3683 54.8589C74.2791 54.8796 74.1812 54.89 74.0746 54.89C73.9855 54.89 73.8989 54.877 73.815 54.8511C73.7311 54.8252 73.656 54.7855 73.5895 54.7319C73.5249 54.6784 73.4724 54.6101 73.4322 54.5272C73.3938 54.4426 73.3745 54.3416 73.3745 54.2241C73.3745 54.1153 73.406 54.0142 73.4689 53.921C73.5319 53.8277 73.6306 53.7465 73.7652 53.6774C73.8998 53.6083 74.072 53.5531 74.2818 53.5116C74.4933 53.4701 74.7467 53.446 75.0422 53.4391V53.1696C75.0422 52.9312 74.9897 52.7481 74.8848 52.6203C74.7817 52.4908 74.6279 52.426 74.4233 52.426C74.2975 52.426 74.19 52.4433 74.1008 52.4778C74.0134 52.5124 73.9391 52.5504 73.878 52.5918C73.8168 52.6333 73.767 52.6713 73.7285 52.7058C73.6901 52.7404 73.6577 52.7576 73.6315 52.7576C73.6123 52.7576 73.5965 52.7533 73.5843 52.7447C73.5721 52.7361 73.5616 52.7248 73.5528 52.711L73.5083 52.6359ZM76.3602 52.8924C76.4004 52.787 76.4458 52.6937 76.4965 52.6126C76.549 52.5296 76.6084 52.4597 76.6748 52.4027C76.743 52.3457 76.8182 52.3025 76.9003 52.2731C76.9842 52.2421 77.0769 52.2265 77.1782 52.2265C77.2324 52.2265 77.2858 52.2317 77.3382 52.2421C77.3906 52.2507 77.437 52.2671 77.4772 52.2913L77.4562 52.4623C77.4474 52.4899 77.4308 52.5037 77.4064 52.5037C77.3854 52.5037 77.3531 52.4977 77.3093 52.4856C77.2674 52.4735 77.2115 52.4675 77.1415 52.4675C77.0402 52.4675 76.9501 52.483 76.8715 52.5141C76.7946 52.5435 76.7246 52.5884 76.6617 52.6488C76.6005 52.7093 76.5463 52.7844 76.4991 52.8742C76.4537 52.9623 76.4117 53.0642 76.3733 53.18V54.8485H76.1216V52.2706H76.2553C76.285 52.2706 76.306 52.2766 76.3182 52.2887C76.3304 52.3008 76.3383 52.3215 76.3418 52.3509L76.3602 52.8924ZM78.2536 52.2706V54.8485H78.0045V52.2706H78.2536ZM78.3611 51.3819C78.3611 51.413 78.3541 51.4423 78.3401 51.47C78.3279 51.4959 78.3113 51.5192 78.2903 51.5399C78.2693 51.5606 78.2448 51.5771 78.2169 51.5891C78.1889 51.6012 78.1592 51.6073 78.1277 51.6073C78.0963 51.6073 78.0665 51.6012 78.0386 51.5891C78.0106 51.5771 77.9861 51.5606 77.9652 51.5399C77.9442 51.5192 77.9276 51.4959 77.9153 51.47C77.9031 51.4423 77.897 51.413 77.897 51.3819C77.897 51.3508 77.9031 51.3214 77.9153 51.2938C77.9276 51.2644 77.9442 51.2394 77.9652 51.2186C77.9861 51.1979 78.0106 51.1815 78.0386 51.1694C78.0665 51.1573 78.0963 51.1513 78.1277 51.1513C78.1592 51.1513 78.1889 51.1573 78.2169 51.1694C78.2448 51.1815 78.2693 51.1979 78.2903 51.2186C78.3113 51.2394 78.3279 51.2644 78.3401 51.2938C78.3541 51.3214 78.3611 51.3508 78.3611 51.3819ZM80.5773 52.5892C80.5633 52.6134 80.5432 52.6255 80.517 52.6255C80.4978 52.6255 80.4733 52.6151 80.4436 52.5944C80.4139 52.572 80.3736 52.5478 80.323 52.5219C80.274 52.4942 80.2128 52.4701 80.1394 52.4493C80.066 52.4269 79.9768 52.4156 79.872 52.4156C79.7776 52.4156 79.691 52.4295 79.6124 52.4571C79.5355 52.483 79.469 52.5184 79.4131 52.5633C79.3589 52.6082 79.317 52.6609 79.2872 52.7214C79.2575 52.7801 79.2427 52.8423 79.2427 52.9079C79.2427 52.9891 79.2637 53.0565 79.3056 53.11C79.3476 53.1636 79.4017 53.2093 79.4682 53.2473C79.5363 53.2853 79.6141 53.3181 79.7015 53.3458C79.7889 53.3734 79.8772 53.4011 79.9664 53.4287C80.0573 53.4563 80.1464 53.4874 80.2338 53.522C80.3212 53.5548 80.3981 53.5962 80.4645 53.6463C80.5327 53.6964 80.5878 53.7577 80.6297 53.8303C80.6717 53.9028 80.6927 53.9909 80.6927 54.0946C80.6927 54.2068 80.6726 54.3113 80.6324 54.4081C80.5922 54.5048 80.5327 54.5886 80.4541 54.6594C80.3771 54.7302 80.2819 54.7863 80.1683 54.8278C80.0546 54.8692 79.9244 54.89 79.7776 54.89C79.594 54.89 79.4358 54.8615 79.303 54.8045C79.1701 54.7457 79.0513 54.6697 78.9464 54.5765L79.0041 54.4884C79.0128 54.4746 79.0224 54.4642 79.0329 54.4573C79.0451 54.4504 79.0609 54.4469 79.0801 54.4469C79.1028 54.4469 79.1299 54.4607 79.1614 54.4884C79.1946 54.516 79.2383 54.5462 79.2925 54.5791C79.3467 54.6101 79.4131 54.6395 79.4918 54.6671C79.5722 54.6948 79.6709 54.7086 79.7881 54.7086C79.8982 54.7086 79.9952 54.6939 80.0791 54.6646C80.163 54.6335 80.2329 54.592 80.2889 54.5402C80.3448 54.4884 80.3868 54.4279 80.4147 54.3588C80.4444 54.288 80.4593 54.2137 80.4593 54.136C80.4593 54.0496 80.4383 53.978 80.3964 53.921C80.3544 53.864 80.2994 53.8156 80.2312 53.7759C80.163 53.7361 80.0852 53.7025 79.9978 53.6748C79.9122 53.6472 79.8239 53.6196 79.733 53.5919C79.6421 53.5643 79.5529 53.5341 79.4655 53.5012C79.3799 53.4684 79.303 53.427 79.2348 53.3769C79.1666 53.3268 79.1116 53.2663 79.0696 53.1955C79.0277 53.123 79.0067 53.0331 79.0067 52.9261C79.0067 52.8345 79.0268 52.7464 79.067 52.6618C79.1072 52.5771 79.164 52.5029 79.2374 52.439C79.3126 52.3751 79.4035 52.3241 79.5101 52.2861C79.6168 52.2481 79.7365 52.2291 79.8693 52.2291C80.0284 52.2291 80.1691 52.2516 80.2915 52.2965C80.4156 52.3414 80.5284 52.4105 80.6297 52.5037L80.5773 52.5892Z" fill="#1389CA"/>
</svg>
