<svg width="28" height="28" viewBox="0 0 28 28" fill="none" xmlns="http://www.w3.org/2000/svg">
<path d="M0 0H28V28H0V0Z" fill="white" fill-opacity="0.01"/>
<path fill-rule="evenodd" clip-rule="evenodd" d="M14 2.33333C7.55667 2.33333 2.33333 7.55667 2.33333 14C2.33333 20.4433 7.55667 25.6667 14 25.6667C20.4433 25.6667 25.6667 20.4433 25.6667 14C25.6667 7.55667 20.4433 2.33333 14 2.33333ZM0 14C0 6.26803 6.26803 0 14 0C21.732 0 28 6.26803 28 14C28 21.732 21.732 28 14 28C6.26803 28 0 21.732 0 14Z" fill="white"/>
<path fill-rule="evenodd" clip-rule="evenodd" d="M11.1902 26.525C11.0774 26.3794 11.0774 25.0817 11.1902 22.6322C9.98168 22.6739 9.21809 22.59 8.89947 22.3805C8.42161 22.0663 7.94316 21.0972 7.51867 20.4142C7.09417 19.7313 6.15197 19.6233 5.77152 19.4706C5.39106 19.3179 5.29555 18.6955 6.81989 19.1662C8.34426 19.6369 8.41857 20.9187 8.89947 21.2184C9.38037 21.5181 10.53 21.387 11.0512 21.1469C11.5722 20.9068 11.5339 20.0128 11.6268 19.6587C11.7443 19.3281 11.3302 19.2548 11.3211 19.2521C10.8124 19.2521 8.1398 18.6709 7.40568 16.0828C6.67161 13.4948 7.61725 11.8032 8.12172 11.076C8.45801 10.5912 8.42826 9.55798 8.03247 7.97627C9.46957 7.79264 10.5785 8.24495 11.3595 9.33334C11.3603 9.33958 12.3833 8.72498 14.0001 8.72498C15.617 8.72498 16.1906 9.2256 16.6333 9.33334C17.0759 9.44108 17.43 7.42817 20.164 7.97627C19.5932 9.09814 19.1152 10.5 19.48 11.076C19.8449 11.652 21.2768 13.4835 20.3972 16.0828C19.8108 17.8157 18.6581 18.8721 16.9391 19.2521C16.7419 19.315 16.6434 19.4165 16.6434 19.5565C16.6434 19.7665 16.9099 19.7895 17.2938 20.7734C17.5497 21.4294 17.5682 23.3029 17.3492 26.394C16.7945 26.5353 16.363 26.63 16.0546 26.6785C15.5078 26.7644 14.9141 26.8126 14.3307 26.8312C13.7473 26.8498 13.5447 26.8477 12.7383 26.7727C12.2006 26.7226 11.6846 26.6401 11.1902 26.525Z" fill="white"/>
</svg>
