<svg width="31" height="31" viewBox="0 0 26 26" fill="none" xmlns="http://www.w3.org/2000/svg">
<path d="M10.0599 16.7104C9.67536 17.095 9.67536 17.7959 10.0599 18.1805C10.4445 18.5651 11.1454 18.5651 11.53 18.1805L18.1806 11.5299C19.0202 10.6903 20.3148 10.6903 21.1208 11.5299C21.9604 12.3706 21.9604 13.6652 21.1208 14.4701L14.6099 21.0156C15.4506 21.8563 16.7452 21.8563 17.5501 21.0156L22.6255 15.9402C24.2364 14.3303 24.2364 11.6697 22.6255 9.98942C21.0157 8.37959 18.355 8.37959 16.6759 9.98942L10.0599 16.7104ZM20.4209 12.2655C20.0353 11.8798 19.3354 11.8798 18.9509 12.2655L12.2992 18.9497C11.4596 19.7903 10.165 19.7903 9.36011 18.9497C8.97444 18.5651 8.27461 18.5651 7.89002 18.9497C7.50436 19.3353 7.50436 20.0352 7.89002 20.4208C9.49986 22.0307 12.1605 22.0307 13.8397 20.4208L20.4556 13.7703C20.8055 13.3499 20.8055 12.6512 20.4209 12.2655ZM9.32436 15.9402L15.976 9.28959C16.3606 8.90501 16.3606 8.20517 15.976 7.81951C15.5904 7.43492 14.8905 7.43492 14.5049 7.81951L7.82069 14.4712C6.98002 15.3108 5.68436 15.3108 4.87944 14.4712C4.67964 14.2746 4.52095 14.0402 4.41264 13.7817C4.30432 13.5231 4.24854 13.2456 4.24854 12.9653C4.24854 12.685 4.30432 12.4075 4.41264 12.149C4.52095 11.8905 4.67964 11.6561 4.87944 11.4595L11.3903 4.98442C10.5496 4.14484 9.25502 4.14484 8.45011 4.98442L3.37469 10.0598C1.76377 11.6697 1.76377 14.3303 3.37469 16.0106C4.98452 17.6204 7.71453 17.6204 9.32436 15.9402ZM5.64969 13.7367C6.03427 14.1213 6.73411 14.1213 7.11977 13.7367L13.805 7.08501C14.6457 6.24542 15.9403 6.24542 16.7452 7.08501C17.1309 7.47067 17.8307 7.47067 18.2153 7.08501C18.6009 6.70042 18.6009 6.00167 18.2153 5.61601C16.6054 4.00509 13.9448 4.00509 12.2656 5.61601L5.61394 12.2666C5.51268 12.3616 5.43263 12.4768 5.379 12.6049C5.32538 12.7329 5.29941 12.8709 5.30279 13.0096C5.30616 13.1484 5.33881 13.2849 5.39859 13.4102C5.45837 13.5355 5.54394 13.6467 5.64969 13.7367Z" fill="#DEDEDE"/>
</svg>
