<svg width="20" height="20" viewBox="0 0 20 20" fill="none" xmlns="http://www.w3.org/2000/svg">
<g clip-path="url(#clip0_23_653)">
<mask id="mask0_23_653" style="mask-type:luminance" maskUnits="userSpaceOnUse" x="0" y="0" width="20" height="20">
<path d="M0 0H20V20H0V0Z" fill="white"/>
</mask>
<g mask="url(#mask0_23_653)">
<path d="M9.345 0.00510417C9.30167 0.00927083 9.165 0.0234375 9.04167 0.0326042C6.20167 0.289271 3.54167 1.82177 1.855 4.1776C0.924163 5.47103 0.318738 6.96972 0.09 8.54677C0.01 9.09677 0 9.25844 0 10.0034C0 10.7484 0.01 10.9109 0.09 11.4601C0.633333 15.2159 3.30667 18.3709 6.93083 19.5401C7.58 19.7493 8.26417 19.8918 9.04167 19.9784C9.345 20.0118 10.655 20.0118 10.9583 19.9784C12.3008 19.8293 13.4392 19.4968 14.5608 18.9243C14.7333 18.8368 14.7667 18.8126 14.7433 18.7934C14.1947 18.0699 13.6516 17.3421 13.1142 16.6101L11.515 14.4493L9.51167 11.4834C8.84509 10.4914 8.1723 9.50365 7.49333 8.5201C7.48583 8.5176 7.47833 9.8351 7.47417 11.4451C7.46833 14.2618 7.46583 14.3751 7.43083 14.4418C7.39645 14.5194 7.33561 14.5823 7.25917 14.6193C7.19667 14.6509 7.1425 14.6568 6.84667 14.6568H6.50833L6.41833 14.6001C6.36264 14.5649 6.31745 14.5154 6.2875 14.4568L6.24583 14.3693L6.25 10.4493L6.25583 6.5276L6.31667 6.45094C6.35704 6.40242 6.40624 6.36198 6.46167 6.33177C6.54167 6.2926 6.5725 6.28927 6.91167 6.28927C7.31 6.28927 7.37667 6.30427 7.48 6.4176C7.50917 6.44927 8.59417 8.08427 9.8925 10.0526L13.8375 16.0293L15.4208 18.4276L15.5017 18.3751C16.2638 17.8687 16.9546 17.2624 17.5558 16.5726C18.8158 15.1303 19.6332 13.3552 19.91 11.4601C19.99 10.9101 20 10.7484 20 10.0034C20 9.25844 19.99 9.09677 19.91 8.54677C19.3667 4.79177 16.6933 1.63594 13.0692 0.466771C12.3918 0.251412 11.6944 0.105385 10.9875 0.0309375C10.7992 0.0109375 9.5075 -0.0107292 9.34583 0.0059375M13.44 6.05594C13.4866 6.07923 13.528 6.11156 13.5619 6.15105C13.5958 6.19055 13.6215 6.2364 13.6375 6.28594C13.6525 6.33594 13.6567 7.42344 13.6525 9.87344L13.6467 13.3884L13.0275 12.4384L12.4058 11.4884V8.93344C12.4058 7.28094 12.4133 6.3526 12.425 6.3076C12.439 6.25559 12.4633 6.20693 12.4965 6.16455C12.5297 6.12216 12.5712 6.08692 12.6183 6.06094C12.6992 6.01927 12.7283 6.01594 13.035 6.01594C13.3242 6.01594 13.375 6.0201 13.44 6.0551" fill="#DEDEDE"/>
</g>
</g>
<defs>
<clipPath id="clip0_23_653">
<rect width="20" height="20" fill="white"/>
</clipPath>
</defs>
</svg>
