<svg width="20" height="20" viewBox="0 0 20 20" fill="none" xmlns="http://www.w3.org/2000/svg">
<path d="M4.10919 7.8833H2.99502L2.38669 11.0091H3.37585C4.03196 11.0091 4.52085 10.8855 4.84252 10.6383C5.16307 10.3911 5.37946 9.9783 5.49169 9.39997C5.59946 8.84497 5.55058 8.4533 5.34502 8.22497C5.13946 7.99664 4.72752 7.88275 4.10919 7.8833ZM6.15085 11.3441C5.84335 11.6391 5.47252 11.8608 5.06919 11.9941C4.67196 12.123 4.16641 12.1877 3.55252 12.1883H2.15669L1.77085 14.1733H0.14502L1.59669 6.70497H4.72502C5.66613 6.70497 6.35252 6.95219 6.78419 7.44664C7.21641 7.93997 7.34641 8.62942 7.17419 9.51497C7.10844 9.86541 6.9869 10.203 6.81419 10.515C6.63905 10.825 6.41455 11.1049 6.15085 11.3441ZM10.9025 12.1883L11.5442 8.88414C11.6175 8.50803 11.5906 8.25192 11.4634 8.1158C11.3372 7.97858 11.067 7.90997 10.6525 7.90997H9.36335L8.53252 12.19H6.91669L8.36835 4.71997H9.98252L9.59669 6.7058H11.0342C11.9397 6.7058 12.5639 6.86358 12.9067 7.17914C13.2495 7.49469 13.3531 8.0058 13.2175 8.71247L12.5425 12.1883H10.9025ZM19.8717 9.51497C19.8067 9.86497 19.685 10.2025 19.5117 10.515C19.3366 10.825 19.1129 11.1049 18.8492 11.3441C18.5409 11.6383 18.1709 11.8608 17.7667 11.9941C17.3695 12.123 16.8634 12.1877 16.2484 12.1883H14.8559L14.4692 14.1741H12.8417L14.2942 6.7058H17.4209C18.362 6.7058 19.0484 6.95303 19.48 7.44747C19.9122 7.93969 20.0425 8.62858 19.8709 9.51414M16.8075 7.8833H15.6942L15.085 11.0091H16.0742C16.7314 11.0091 17.2203 10.8855 17.5409 10.6383C17.8614 10.3911 18.0781 9.9783 18.1909 9.39997C18.2986 8.84497 18.2495 8.4533 18.0434 8.22497C17.8372 7.99664 17.4253 7.88275 16.8075 7.8833Z" fill="#DEDEDE"/>
</svg>
