<svg width="20" height="20" viewBox="0 0 20 20" fill="none" xmlns="http://www.w3.org/2000/svg">
<path d="M13.5315 1.66675C12.8842 1.67225 12.2407 1.76646 11.619 1.94675L11.5748 1.96091C11.1827 1.89111 10.7856 1.85265 10.3873 1.84591C9.56898 1.83175 8.86648 2.03091 8.29981 2.36091C7.74148 2.16758 6.58314 1.83341 5.36231 1.90008C4.51231 1.94675 3.58481 2.20508 2.89731 2.93091C2.21148 3.65591 1.84898 4.77925 1.92564 6.30675C1.94648 6.72842 2.06731 7.41592 2.26564 8.30675C2.46564 9.19675 2.74481 10.2392 3.09398 11.1901C3.44314 12.1409 3.82648 12.9951 4.42398 13.5759C4.72314 13.8676 5.13398 14.1109 5.61898 14.0909C5.95898 14.0776 6.26648 13.9284 6.53148 13.7076C6.66064 13.8776 6.79898 13.9526 6.92481 14.0209C7.08314 14.1076 7.23731 14.1667 7.39731 14.2059C7.68398 14.2776 8.17481 14.3726 8.74981 14.2751C8.94564 14.2426 9.15231 14.1784 9.35814 14.0876C9.36481 14.3167 9.37481 14.5409 9.38314 14.7684C9.41148 15.4876 9.42981 16.1517 9.64564 16.7351C9.68064 16.8301 9.77564 17.3201 10.1506 17.7526C10.5256 18.1851 11.2606 18.4567 12.0973 18.2776C12.6873 18.1509 13.4381 17.9234 13.9365 17.2134C14.4298 16.5117 14.6523 15.5051 14.6956 13.8734C14.7057 13.7952 14.7184 13.7174 14.734 13.6401L14.8506 13.6509H14.8648C15.4948 13.6792 16.1781 13.5901 16.749 13.3242C17.2548 13.0909 17.6373 12.8534 17.9156 12.4334C18.0107 12.3024 18.0683 12.148 18.0823 11.9867C18.1031 11.7701 17.979 11.4317 17.7731 11.2751C17.3598 10.9609 17.0998 11.0809 16.8215 11.1384C16.5459 11.199 16.2676 11.2329 15.9865 11.2401C16.74 9.97219 17.3146 8.6062 17.694 7.18091C17.8881 6.43091 17.9973 5.73925 18.0065 5.13425C18.0148 4.52925 17.9656 3.99425 17.6031 3.53091C16.4706 2.08341 14.8781 1.68341 13.6465 1.66925H13.5315V1.66675ZM13.499 2.11091C14.6648 2.10008 16.1531 2.42758 17.2223 3.79341C17.4623 4.10008 17.534 4.54841 17.5256 5.10175C17.5173 5.65342 17.4148 6.31508 17.2281 7.03925C16.8008 8.63826 16.1215 10.159 15.2156 11.5442C15.2501 11.5687 15.2868 11.5887 15.3256 11.6042C15.5273 11.6876 15.9865 11.7592 16.9023 11.5709C17.1323 11.5226 17.3015 11.4901 17.4765 11.6234C17.5186 11.6598 17.5519 11.7052 17.5738 11.7563C17.5958 11.8074 17.6058 11.8629 17.6031 11.9184C17.5934 12.0026 17.5624 12.0829 17.5131 12.1517C17.3365 12.4176 16.9865 12.6692 16.5381 12.8767C16.1423 13.0617 15.574 13.1584 15.0698 13.1642C14.8391 13.1734 14.6083 13.147 14.3856 13.0859L14.3731 13.0809C14.2965 13.8167 14.1206 15.2701 14.0065 15.9334C13.9148 16.4684 13.754 16.8934 13.4481 17.2117C13.1423 17.5292 12.7098 17.7209 12.1273 17.8459C11.4065 18.0009 10.8815 17.8342 10.5423 17.5484C10.204 17.2642 10.049 16.8867 9.95648 16.6551C9.89231 16.4951 9.85898 16.2884 9.82731 16.0117C9.79173 15.6807 9.76782 15.3486 9.75564 15.0159C9.73398 14.4326 9.72703 13.8487 9.73481 13.2642C9.43376 13.5399 9.05969 13.7231 8.65731 13.7917C8.27021 13.8514 7.87494 13.8301 7.49648 13.7292C7.37121 13.697 7.25011 13.6503 7.13564 13.5901C7.01731 13.5267 6.90481 13.4551 6.82981 13.3142C6.78573 13.2334 6.77157 13.1395 6.78981 13.0492C6.81282 12.9576 6.8663 12.8765 6.94148 12.8192C7.07898 12.7076 7.26064 12.6451 7.53564 12.5884C8.03481 12.4859 8.20898 12.4159 8.31481 12.3317C8.40564 12.2592 8.50731 12.1134 8.68814 11.8992L8.68648 11.8709C8.36333 11.861 8.04692 11.7759 7.76231 11.6226C7.31885 12.0932 6.89031 12.5776 6.47731 13.0751C6.20481 13.4017 5.90314 13.5892 5.58564 13.6026C5.26814 13.6159 4.97981 13.4559 4.73564 13.2192C4.24731 12.7442 3.85731 11.9284 3.51814 11.0067C3.17898 10.0842 2.90314 9.05675 2.70731 8.18175C2.51064 7.30675 2.39481 6.60175 2.37814 6.26091C2.30564 4.81508 2.64398 3.84091 3.22314 3.22675C3.80398 2.61175 4.59981 2.37925 5.37564 2.33508C6.76731 2.25508 8.08981 2.74008 8.35731 2.84425C8.87314 2.49425 9.53648 2.27675 10.3656 2.29008C10.7598 2.29591 11.1515 2.34675 11.5331 2.44175L11.5473 2.43591C11.7156 2.37647 11.8868 2.32675 12.0606 2.28675C12.5321 2.17667 13.0141 2.11827 13.4981 2.11258L13.499 2.11091ZM13.6048 2.57675H13.5031C13.1043 2.5823 12.7098 2.62675 12.3198 2.71008C13.0977 3.06065 13.7774 3.59726 14.299 4.27258C14.6193 4.6801 14.8838 5.12849 15.0856 5.60592C15.1612 5.79036 15.2134 5.94314 15.2423 6.06425C15.2565 6.12425 15.2673 6.17508 15.2698 6.22758C15.2738 6.26114 15.271 6.29515 15.2615 6.32758L15.2573 6.33675C15.2781 6.94508 15.1281 7.35758 15.1098 7.93842C15.0956 8.35925 15.2031 8.85342 15.2298 9.39342C15.2548 9.90008 15.194 10.4567 14.8648 11.0034L14.944 11.1034C15.8148 9.73175 16.4423 8.21508 16.7773 6.92092C16.9565 6.22425 17.0515 5.59342 17.0598 5.09341C17.0665 4.59341 16.9731 4.23091 16.8548 4.07925C15.9231 2.88758 14.6615 2.58508 13.6048 2.57675ZM10.2781 2.75341C9.45731 2.75591 8.86898 3.00341 8.42231 3.37508C7.96148 3.75841 7.65231 4.28508 7.44981 4.82258C7.25365 5.36245 7.13388 5.92707 7.09398 6.50008L7.10231 6.49425C7.39176 6.33271 7.70222 6.21212 8.02481 6.13591C8.37314 6.05675 8.74981 6.03175 9.08981 6.16341C9.42981 6.29508 9.71064 6.60508 9.81314 7.07675C10.3023 9.33841 9.66148 10.1792 9.42481 10.8142C9.33537 11.0448 9.2587 11.2792 9.19481 11.5176C9.22481 11.5109 9.25481 11.5026 9.28481 11.4992C9.45148 11.4859 9.58231 11.5409 9.65981 11.5742C9.89731 11.6734 10.0598 11.8801 10.1481 12.1159C10.1715 12.1787 10.1881 12.2445 10.1981 12.3134C10.2079 12.3418 10.2124 12.3717 10.2115 12.4017C10.1852 13.2669 10.1883 14.1327 10.2206 14.9976C10.2373 15.3709 10.2606 15.7001 10.2898 15.9601C10.3198 16.2184 10.3623 16.4159 10.3898 16.4826C10.4781 16.7051 10.6081 16.9959 10.8431 17.1942C11.0773 17.3909 11.4148 17.5234 12.0298 17.3909C12.5631 17.2767 12.8923 17.1176 13.1131 16.8892C13.3315 16.6609 13.4631 16.3426 13.5465 15.8559C13.6731 15.1267 13.9256 13.0117 13.9565 12.6142C13.9423 12.3142 13.9865 12.0834 14.0823 11.9076C14.1696 11.7531 14.3039 11.6305 14.4656 11.5576C14.5323 11.5276 14.594 11.5076 14.644 11.4926C14.5904 11.4157 14.5343 11.3407 14.4756 11.2676C14.2852 11.0367 14.1294 10.7792 14.0131 10.5034C13.9573 10.3898 13.8979 10.2781 13.8348 10.1684C13.7423 10.0017 13.6256 9.79342 13.5031 9.55925C13.259 9.09008 12.9931 8.52258 12.8548 7.96925C12.7173 7.41592 12.6965 6.84425 13.0498 6.44008C13.3623 6.08175 13.9115 5.93341 14.7348 6.01675C14.7098 5.94425 14.6956 5.88341 14.6548 5.78591C14.4689 5.3476 14.2259 4.93572 13.9323 4.56091C13.234 3.66925 12.104 2.78425 10.3581 2.75591H10.2781V2.75341ZM5.66648 2.79008C5.57814 2.79008 5.49037 2.79286 5.40314 2.79841C4.70148 2.83841 4.03814 3.04175 3.56398 3.54425C3.08898 4.04758 2.77648 4.87175 2.84481 6.23591C2.85731 6.49425 2.96981 7.21841 3.16314 8.07758C3.35481 8.93758 3.62814 9.94925 3.95648 10.8434C4.28481 11.7376 4.68231 12.5151 5.06064 12.8826C5.25064 13.0667 5.41564 13.1409 5.56564 13.1351C5.71648 13.1284 5.89814 13.0409 6.11981 12.7751C6.52314 12.2879 6.94203 11.8137 7.37648 11.3526C7.0683 11.0855 6.83245 10.7451 6.69072 10.3627C6.549 9.98039 6.50598 9.56847 6.56564 9.16508C6.62779 8.71066 6.65232 8.25188 6.63898 7.79342C6.63064 7.42342 6.60398 7.17758 6.60398 7.02425V7.00342C6.60265 6.20373 6.74171 5.41002 7.01481 4.65842C7.20898 4.14175 7.49814 3.61675 7.93231 3.19175C7.50648 3.05175 6.74898 2.83758 5.92981 2.79758C5.84184 2.79275 5.75375 2.79025 5.66564 2.79008H5.66648ZM14.2756 6.45842C13.804 6.46508 13.5398 6.58591 13.4006 6.74508C13.204 6.97091 13.1856 7.36675 13.3073 7.85425C13.429 8.34258 13.6806 8.88758 13.9165 9.34175C14.0348 9.56925 14.1498 9.77342 14.2415 9.93925C14.3348 10.1059 14.4031 10.2234 14.4448 10.3242C14.4812 10.4104 14.5224 10.4944 14.5681 10.5759C14.7506 10.1901 14.7831 9.81175 14.7648 9.41758C14.7398 8.92925 14.6273 8.43008 14.644 7.92425C14.6623 7.33342 14.779 6.94925 14.7898 6.49175C14.6193 6.47004 14.4476 6.45891 14.2756 6.45842ZM8.55731 6.53841C8.41337 6.5402 8.27003 6.55752 8.12981 6.59008C7.85082 6.65905 7.58193 6.76381 7.32981 6.90175C7.24425 6.9473 7.16314 7.00008 7.08648 7.06008L7.07148 7.07341C7.07564 7.17508 7.09648 7.42091 7.10481 7.78258C7.11314 8.17841 7.10231 8.68342 7.02648 9.23008C6.85981 10.4176 7.72231 11.4009 8.73481 11.4026C8.79314 11.1584 8.89064 10.9109 8.98814 10.6509C9.26981 9.89091 9.82481 9.33675 9.35731 7.17425C9.28148 6.82008 9.12981 6.67758 8.92148 6.59675C8.80475 6.55489 8.68127 6.53511 8.55731 6.53841ZM14.0556 6.68008H14.0898C14.1319 6.68056 14.1738 6.68559 14.2148 6.69508C14.2531 6.70342 14.2854 6.71619 14.3115 6.73342C14.3249 6.742 14.3363 6.75323 14.3452 6.76641C14.3541 6.7796 14.3602 6.79446 14.3631 6.81008V6.81508C14.3644 6.84826 14.3557 6.88105 14.3381 6.90925C14.3172 6.94714 14.2914 6.98216 14.2615 7.01342C14.1914 7.0912 14.0972 7.14315 13.994 7.16092C13.8934 7.17243 13.7921 7.14696 13.709 7.08925C13.6751 7.06632 13.6448 7.03852 13.619 7.00675C13.5958 6.98267 13.5804 6.95218 13.5748 6.91925C13.5732 6.90318 13.575 6.88695 13.58 6.8716C13.5851 6.85626 13.5932 6.84212 13.604 6.83008C13.6266 6.80381 13.6544 6.78253 13.6856 6.76758C13.8014 6.7123 13.9274 6.68192 14.0556 6.67841V6.68008ZM8.62481 6.79675C8.66148 6.79675 8.70009 6.79953 8.74064 6.80508C8.84648 6.82008 8.94064 6.84841 9.01314 6.89008C9.0487 6.90841 9.07925 6.93314 9.10481 6.96425C9.11925 6.98036 9.12981 6.99869 9.13648 7.01925C9.14259 7.0398 9.14481 7.06064 9.14314 7.08175C9.13653 7.12194 9.11828 7.15932 9.09064 7.18925C9.06266 7.2244 9.02917 7.25479 8.99148 7.27925C8.90133 7.34336 8.79041 7.37132 8.68064 7.35758C8.56823 7.33955 8.46534 7.28369 8.38898 7.19925C8.35629 7.16553 8.32852 7.12738 8.30648 7.08592C8.28334 7.0492 8.27335 7.00571 8.27814 6.96258C8.28898 6.88758 8.35064 6.84841 8.41148 6.82758C8.47995 6.80509 8.552 6.79548 8.62398 6.79925L8.62481 6.79675ZM14.9165 11.8967H14.9148C14.8123 11.9334 14.7281 11.9492 14.6573 11.9801C14.5859 12.0078 14.527 12.0605 14.4915 12.1284C14.4481 12.2084 14.4106 12.3501 14.4215 12.5909C14.4537 12.6131 14.4879 12.6295 14.524 12.6401C14.6431 12.6759 14.8423 12.6992 15.0648 12.6959C15.5073 12.6909 16.0531 12.5876 16.3423 12.4534C16.5798 12.3426 16.8006 12.1984 16.9973 12.0259C16.029 12.2259 15.4823 12.1726 15.1473 12.0342C15.0639 11.9995 14.9861 11.9526 14.9165 11.8951V11.8967ZM9.33981 11.9617H9.32481C9.28814 11.9651 9.23481 11.9776 9.13148 12.0917C8.88981 12.3626 8.80481 12.5334 8.60564 12.6917C8.40564 12.8501 8.14731 12.9351 7.62981 13.0417C7.51936 13.0615 7.41184 13.0951 7.30981 13.1417C7.32981 13.1584 7.32731 13.1617 7.35814 13.1776C7.43314 13.2192 7.53148 13.2567 7.60981 13.2767C7.83148 13.3317 8.19731 13.3967 8.57814 13.3317C8.95981 13.2667 9.35648 13.0842 9.69481 12.6101C9.75314 12.5284 9.75898 12.4076 9.71148 12.2767C9.66231 12.1476 9.55648 12.0351 9.48148 12.0042C9.43658 11.9834 9.38883 11.9685 9.33981 11.9617Z" fill="#DEDEDE"/>
</svg>
