<svg width="20" height="20" viewBox="0 0 20 20" fill="none" xmlns="http://www.w3.org/2000/svg">
<g clip-path="url(#clip0_22_483)">
<path d="M15.3125 0H4.6875C2.09867 0 0 2.09867 0 4.6875V15.3125C0 17.9013 2.09867 20 4.6875 20H15.3125C17.9013 20 20 17.9013 20 15.3125V4.6875C20 2.09867 17.9013 0 15.3125 0Z" fill="#0277BD"/>
<path d="M4.19945 8.01961L4.42305 10.5151H10.0075V8.01961H4.19945ZM10.0074 2.96875H3.75L3.97687 5.46422H10.0074V2.96875ZM10.0074 17.097V14.5006L9.99648 14.5035L7.21727 13.7531L7.03961 11.7628H4.53453L4.88414 15.6811L9.99594 17.1002L10.0074 17.097Z" fill="#EBEBEB"/>
<path d="M13.0719 10.5151L12.7822 13.7515L9.99902 14.5027V17.0989L15.1149 15.6811L15.1524 15.2595L15.7388 8.68977L15.7996 8.01961L16.2502 2.96875H9.99902V5.46422H13.5154L13.2883 8.01961H9.99902V10.5151H13.0719Z" fill="white"/>
</g>
<defs>
<clipPath id="clip0_22_483">
<rect width="20" height="20" fill="white"/>
</clipPath>
</defs>
</svg>
