<svg width="20" height="20" viewBox="0 0 20 20" fill="none" xmlns="http://www.w3.org/2000/svg">
<g clip-path="url(#clip0_22_478)">
<path d="M15.3125 0H4.6875C2.09867 0 0 2.09867 0 4.6875V15.3125C0 17.9013 2.09867 20 4.6875 20H15.3125C17.9013 20 20 17.9013 20 15.3125V4.6875C20 2.09867 17.9013 0 15.3125 0Z" fill="#E14E1D"/>
<path d="M3.75 2.96875L4.42266 10.5151H13.0719L12.7816 13.7518L9.9968 14.5048L7.21719 13.7529L7.03133 11.6746H4.52656L4.88477 15.6809L9.99625 17.1006L15.1142 15.6809L15.8004 8.01992H6.705L6.47664 5.46445H16.0265L16.25 2.96875H3.75Z" fill="white"/>
<path d="M10 2.96875H3.75L4.42266 10.5151H10V8.01992H6.705L6.47664 5.46445H10V2.96875ZM10 14.5037L9.9968 14.5048L7.21719 13.7529L7.03133 11.6746H4.52656L4.88477 15.6809L9.99625 17.1006L10.0001 17.0995L10 14.5037Z" fill="#EBEBEB"/>
</g>
<defs>
<clipPath id="clip0_22_478">
<rect width="20" height="20" fill="white"/>
</clipPath>
</defs>
</svg>
