<svg width="25" height="25" viewBox="0 0 20 20" fill="none" xmlns="http://www.w3.org/2000/svg">
<g clip-path="url(#clip0_22_498)">
<path fill-rule="evenodd" clip-rule="evenodd" d="M7.2129 0.394246C5.28005 0.957281 3.56178 2.0898 2.28225 3.64404C1.00271 5.19829 0.22133 7.1021 0.0400391 9.1071H4.61147C4.87794 6.05603 5.76256 3.0911 7.21147 0.392817L7.2129 0.394246ZM4.61147 10.8928H0.0400391C0.220953 12.8979 1.002 14.8019 2.28128 16.3564C3.56057 17.9109 5.27868 19.0437 7.21147 19.6071C5.76256 16.9088 4.87794 13.9439 4.61147 10.8928ZM9.5029 19.9885C7.77087 17.2415 6.70896 14.1258 6.4029 10.8928H13.5958C13.2897 14.1258 12.2278 17.2415 10.4958 19.9885C10.165 20.005 9.83364 20.005 9.5029 19.9885ZM12.7886 19.6057C14.7212 19.0424 16.4392 17.9098 17.7184 16.3555C18.9977 14.8013 19.7789 12.8976 19.96 10.8928H15.3886C15.1221 13.9439 14.2375 16.9088 12.7886 19.6071V19.6057ZM15.3886 9.1071H19.96C19.7791 7.10203 18.9981 5.19803 17.7188 3.64353C16.4395 2.08902 14.7214 0.956185 12.7886 0.392817C14.2375 3.0911 15.1221 6.05603 15.3886 9.1071ZM9.5029 0.0113886C9.83412 -0.00509829 10.166 -0.00509829 10.4972 0.0113886C12.2287 2.75851 13.2901 5.87424 13.5958 9.1071H6.40433C6.71432 5.85425 7.77861 2.73567 9.5029 0.0113886Z" fill="#DEDEDE"/>
</g>
<defs>
<clipPath id="clip0_22_498">
<rect width="20" height="20" fill="white"/>
</clipPath>
</defs>
</svg>
