<svg width="20" height="20" viewBox="0 0 20 20" fill="none" xmlns="http://www.w3.org/2000/svg">
<g clip-path="url(#clip0_23_596)">
<path d="M10.0005 4.00024C7.33377 4.00024 5.66768 5.33306 5.00049 7.99978C6.00018 6.66681 7.16721 6.16696 8.50018 6.50024C9.26127 6.68993 9.80518 7.24181 10.4075 7.85337C11.3878 8.84821 12.5225 9.99993 15.0005 9.99993C17.6671 9.99993 19.3333 8.66696 20.0005 5.99962C19.0005 7.33326 17.8339 7.83337 16.5006 7.49993C15.7397 7.31009 15.1964 6.75837 14.5933 6.14681C13.6136 5.15196 12.4792 4.00024 10.0005 4.00024ZM5.00049 9.99993C2.33393 9.99993 0.667676 11.3329 0.000488281 14.0002C1.00038 12.6666 2.16695 12.1665 3.50018 12.4999C4.26127 12.6898 4.80518 13.2415 5.40752 13.8531C6.38783 14.8479 7.52252 15.9996 10.0005 15.9996C12.6671 15.9996 14.3333 14.6668 15.0005 12.0001C14.0005 13.3331 12.8339 13.833 11.5006 13.4996C10.7397 13.3099 10.1964 12.7581 9.5933 12.1465C8.61361 11.1517 7.47924 9.99993 5.00049 9.99993Z" fill="#38BDF8"/>
</g>
<defs>
<clipPath id="clip0_23_596">
<rect width="20" height="20" fill="white"/>
</clipPath>
</defs>
</svg>
