<svg width="20" height="20" viewBox="0 0 20 20" fill="none" xmlns="http://www.w3.org/2000/svg">
<g clip-path="url(#clip0_23_562)">
<path d="M15.3125 0H4.6875C2.09867 0 0 2.09867 0 4.6875V15.3125C0 17.9013 2.09867 20 4.6875 20H15.3125C17.9013 20 20 17.9013 20 15.3125V4.6875C20 2.09867 17.9013 0 15.3125 0Z" fill="#F4F2ED"/>
<path d="M17.7413 4.50013L10.4106 17.6085C10.2592 17.8792 9.87041 17.8808 9.71681 17.6115L2.2408 4.5013C2.07345 4.20787 2.32439 3.8524 2.65705 3.91185L9.99548 5.22357C10.0423 5.23192 10.0903 5.23181 10.137 5.22326L17.322 3.91365C17.6535 3.85326 17.9056 4.20599 17.7413 4.50013Z" fill="url(#paint0_linear_23_562)"/>
<path d="M13.4913 2.19141L8.06642 3.2543C8.02308 3.2628 7.98378 3.28546 7.95472 3.31872C7.92566 3.35198 7.90848 3.39396 7.90587 3.43805L7.57212 9.07407C7.5703 9.10497 7.5757 9.13586 7.5879 9.16431C7.6001 9.19276 7.61877 9.21797 7.64241 9.23795C7.66605 9.25793 7.69402 9.27213 7.7241 9.27941C7.75419 9.2867 7.78555 9.28687 7.81572 9.27993L9.32611 8.93141C9.46744 8.89883 9.59509 9.02328 9.56611 9.16539L9.11736 11.3627C9.08712 11.5106 9.22603 11.637 9.3704 11.5932L10.3033 11.3098C10.4479 11.2659 10.5869 11.3927 10.5563 11.5407L9.84314 14.9922C9.79853 15.2081 10.0857 15.3259 10.2055 15.1407L10.2855 15.0171L14.706 6.19524C14.78 6.04758 14.6524 5.87914 14.4901 5.91039L12.9355 6.21047C12.7894 6.2386 12.6651 6.10258 12.7063 5.95969L13.721 2.44203C13.7623 2.29891 13.6375 2.16282 13.4913 2.19141Z" fill="url(#paint1_linear_23_562)"/>
</g>
<defs>
<linearGradient id="paint0_linear_23_562" x1="2.0583" y1="3.44333" x2="11.1818" y2="15.8338" gradientUnits="userSpaceOnUse">
<stop stop-color="#41D1FF"/>
<stop offset="1" stop-color="#BD34FE"/>
</linearGradient>
<linearGradient id="paint1_linear_23_562" x1="9.57439" y1="2.47993" x2="11.2248" y2="13.8016" gradientUnits="userSpaceOnUse">
<stop stop-color="#FFEA83"/>
<stop offset="0.083" stop-color="#FFDD35"/>
<stop offset="1" stop-color="#FFA800"/>
</linearGradient>
<clipPath id="clip0_23_562">
<rect width="20" height="20" fill="white"/>
</clipPath>
</defs>
</svg>
